<svg xmlns="http://www.w3.org/2000/svg" viewBox="0 0 80 80" fill="none" aria-hidden="true">
  <defs>
    <linearGradient id="upg" x1="0" y1="0" x2="80" y2="80" gradientUnits="userSpaceOnUse">
      <stop offset="0" stop-color="#3D71FF"/>
      <stop offset="1" stop-color="#0B2ECC"/>
    </linearGradient>
  </defs>
  <rect x="1" y="1" width="78" height="78" rx="16" stroke="url(#upg)" stroke-width="1.5"/>
  <path d="M22 22 L22 46 C22 52.6 27.4 58 34 58 L34 58 C40.6 58 46 52.6 46 46 L46 22" stroke="#F5F7FA" stroke-width="4" stroke-linecap="round"/>
  <path d="M54 58 L54 22 L64 22 C68.4183 22 72 25.5817 72 30 L72 30 C72 34.4183 68.4183 38 64 38 L54 38" stroke="#1E56FF" stroke-width="4" stroke-linecap="round" stroke-linejoin="round"/>
  <path d="M62 12 L70 4 L70 12 M70 4 L62 4" stroke="#1E56FF" stroke-width="2" stroke-linecap="round" stroke-linejoin="round"/>
</svg>
