<?xml version="1.0" standalone="no"?>
<!DOCTYPE svg PUBLIC "-//W3C//DTD SVG 20010904//EN"
 "http://www.w3.org/TR/2001/REC-SVG-20010904/DTD/svg10.dtd">
<svg version="1.0" xmlns="http://www.w3.org/2000/svg"
 width="2390.000000pt" height="1792.000000pt" viewBox="0 0 2390.000000 1792.000000"
 preserveAspectRatio="xMidYMid meet">

<g transform="translate(0.000000,1792.000000) scale(0.100000,-0.100000)"
fill="#000000" stroke="none">
<path d="M19971 13634 c0 -11 3 -14 6 -6 3 7 2 16 -1 19 -3 4 -6 -2 -5 -13z"/>
<path d="M20160 13525 c-7 -8 -8 -15 -3 -15 5 0 10 -7 10 -15 0 -10 -4 -12
-12 -5 -8 7 -12 5 -12 -5 0 -8 4 -15 9 -15 4 0 8 -8 8 -17 0 -15 11 -18 75
-19 72 -2 105 -15 105 -42 0 -16 27 -34 34 -23 4 6 13 8 21 5 7 -3 21 -2 29 3
12 7 -10 24 -96 73 -62 35 -122 70 -134 77 -18 11 -23 11 -34 -2z m205 -135
c3 -5 1 -10 -4 -10 -6 0 -11 5 -11 10 0 6 2 10 4 10 3 0 8 -4 11 -10z"/>
<path d="M4525 12622 c-349 -315 -687 -702 -875 -1004 -146 -234 -291 -550
-364 -791 -163 -537 -138 -1118 68 -1609 223 -533 647 -1012 1261 -1423 633
-423 1604 -799 2620 -1014 398 -84 923 -168 1405 -225 606 -73 1577 -111 2218
-87 489 18 1260 76 1281 97 2 2 8 106 13 231 4 126 15 383 23 572 8 189 14
345 13 346 -2 1 -100 -10 -218 -25 -607 -78 -1165 -119 -1905 -141 -1915 -56
-3711 265 -4846 866 -366 194 -616 372 -829 592 -419 431 -644 925 -686 1508
-12 172 29 488 92 710 83 289 249 658 412 917 111 175 292 416 425 566 40 44
10 20 -108 -86z"/>
</g>
</svg>
